<svg width="136" height="53" viewBox="0 0 136 53" fill="none" xmlns="http://www.w3.org/2000/svg">
<path d="M14.78 9.82H12.8V11.74H10.64V9.82H8.66V7.78H10.64V5.86H12.8V7.78H14.78V9.82ZM20.271 7.924C20.919 8.084 21.415 8.376 21.759 8.8C22.111 9.216 22.287 9.72 22.287 10.312C22.287 10.816 22.147 11.288 21.867 11.728C21.595 12.16 21.171 12.512 20.595 12.784C20.019 13.056 19.303 13.192 18.447 13.192C17.855 13.192 17.263 13.128 16.671 13C16.087 12.872 15.575 12.684 15.135 12.436L16.095 10.348C16.439 10.548 16.807 10.7 17.199 10.804C17.599 10.908 17.983 10.96 18.351 10.96C18.679 10.96 18.943 10.904 19.143 10.792C19.343 10.68 19.443 10.52 19.443 10.312C19.443 9.928 19.111 9.736 18.447 9.736H17.331V7.996L18.567 6.736H15.567V4.6H21.831V6.34L20.271 7.924ZM29.2861 8.572C29.6461 8.796 29.9221 9.072 30.1141 9.4C30.3141 9.72 30.4141 10.088 30.4141 10.504C30.4141 11.04 30.2541 11.512 29.9341 11.92C29.6221 12.328 29.1781 12.644 28.6021 12.868C28.0341 13.084 27.3821 13.192 26.6461 13.192C25.9101 13.192 25.2541 13.084 24.6781 12.868C24.1101 12.644 23.6661 12.328 23.3461 11.92C23.0341 11.512 22.8781 11.04 22.8781 10.504C22.8781 10.088 22.9741 9.72 23.1661 9.4C23.3661 9.072 23.6461 8.796 24.0061 8.572C23.4541 8.132 23.1781 7.58 23.1781 6.916C23.1781 6.412 23.3221 5.972 23.6101 5.596C23.9061 5.22 24.3141 4.928 24.8341 4.72C25.3621 4.512 25.9661 4.408 26.6461 4.408C27.3261 4.408 27.9261 4.512 28.4461 4.72C28.9741 4.928 29.3821 5.22 29.6701 5.596C29.9661 5.972 30.1141 6.412 30.1141 6.916C30.1141 7.58 29.8381 8.132 29.2861 8.572ZM26.6461 6.316C26.4461 6.316 26.2821 6.38 26.1541 6.508C26.0341 6.636 25.9741 6.812 25.9741 7.036C25.9741 7.26 26.0341 7.436 26.1541 7.564C26.2821 7.692 26.4461 7.756 26.6461 7.756C26.8461 7.756 27.0061 7.692 27.1261 7.564C27.2541 7.436 27.3181 7.26 27.3181 7.036C27.3181 6.812 27.2541 6.636 27.1261 6.508C27.0061 6.38 26.8461 6.316 26.6461 6.316ZM26.6461 11.284C26.9181 11.284 27.1381 11.204 27.3061 11.044C27.4821 10.884 27.5701 10.672 27.5701 10.408C27.5701 10.144 27.4821 9.932 27.3061 9.772C27.1381 9.612 26.9181 9.532 26.6461 9.532C26.3741 9.532 26.1501 9.612 25.9741 9.772C25.8061 9.932 25.7221 10.144 25.7221 10.408C25.7221 10.672 25.8061 10.884 25.9741 11.044C26.1501 11.204 26.3741 11.284 26.6461 11.284ZM36.4686 15.328C35.9486 14.608 35.5526 13.768 35.2806 12.808C35.0086 11.84 34.8726 10.808 34.8726 9.712C34.8726 8.616 35.0086 7.588 35.2806 6.628C35.5526 5.66 35.9486 4.816 36.4686 4.096H39.0606C38.5246 5.048 38.1326 5.98 37.8846 6.892C37.6446 7.796 37.5246 8.736 37.5246 9.712C37.5246 10.688 37.6446 11.632 37.8846 12.544C38.1326 13.448 38.5246 14.376 39.0606 15.328H36.4686ZM43.0309 13.192C42.2869 13.192 41.6269 13.02 41.0509 12.676C40.4829 12.324 40.0349 11.82 39.7069 11.164C39.3869 10.5 39.2269 9.712 39.2269 8.8C39.2269 7.888 39.3869 7.104 39.7069 6.448C40.0349 5.784 40.4829 5.28 41.0509 4.936C41.6269 4.584 42.2869 4.408 43.0309 4.408C43.7749 4.408 44.4309 4.584 44.9989 4.936C45.5749 5.28 46.0229 5.784 46.3429 6.448C46.6709 7.104 46.8349 7.888 46.8349 8.8C46.8349 9.712 46.6709 10.5 46.3429 11.164C46.0229 11.82 45.5749 12.324 44.9989 12.676C44.4309 13.02 43.7749 13.192 43.0309 13.192ZM43.0309 10.924C43.6709 10.924 43.9909 10.216 43.9909 8.8C43.9909 7.384 43.6709 6.676 43.0309 6.676C42.3909 6.676 42.0709 7.384 42.0709 8.8C42.0709 10.216 42.3909 10.924 43.0309 10.924ZM54.6275 4.6V6.34L51.8315 13H48.7355L51.3995 6.796H49.7795V8.02H47.4395V4.6H54.6275ZM59.3711 4.6V13H56.5391V6.736H55.0991V4.6H59.3711ZM59.8747 15.328C60.4107 14.376 60.7987 13.448 61.0387 12.544C61.2867 11.632 61.4107 10.688 61.4107 9.712C61.4107 8.736 61.2867 7.796 61.0387 6.892C60.7987 5.98 60.4107 5.048 59.8747 4.096H62.4667C62.9867 4.816 63.3827 5.66 63.6547 6.628C63.9267 7.588 64.0627 8.616 64.0627 9.712C64.0627 10.808 63.9267 11.84 63.6547 12.808C63.3827 13.768 62.9867 14.608 62.4667 15.328H59.8747ZM73.2867 7.924C73.9347 8.084 74.4307 8.376 74.7747 8.8C75.1267 9.216 75.3027 9.72 75.3027 10.312C75.3027 10.816 75.1627 11.288 74.8827 11.728C74.6107 12.16 74.1867 12.512 73.6107 12.784C73.0347 13.056 72.3187 13.192 71.4627 13.192C70.8707 13.192 70.2787 13.128 69.6867 13C69.1027 12.872 68.5907 12.684 68.1507 12.436L69.1107 10.348C69.4547 10.548 69.8227 10.7 70.2147 10.804C70.6147 10.908 70.9987 10.96 71.3667 10.96C71.6947 10.96 71.9587 10.904 72.1587 10.792C72.3587 10.68 72.4587 10.52 72.4587 10.312C72.4587 9.928 72.1267 9.736 71.4627 9.736H70.3467V7.996L71.5827 6.736H68.5827V4.6H74.8467V6.34L73.2867 7.924ZM80.5992 7.924C81.2472 8.084 81.7432 8.376 82.0872 8.8C82.4392 9.216 82.6152 9.72 82.6152 10.312C82.6152 10.816 82.4752 11.288 82.1952 11.728C81.9232 12.16 81.4992 12.512 80.9232 12.784C80.3472 13.056 79.6312 13.192 78.7752 13.192C78.1832 13.192 77.5912 13.128 76.9992 13C76.4152 12.872 75.9032 12.684 75.4632 12.436L76.4232 10.348C76.7672 10.548 77.1352 10.7 77.5272 10.804C77.9272 10.908 78.3112 10.96 78.6792 10.96C79.0072 10.96 79.2712 10.904 79.4712 10.792C79.6712 10.68 79.7712 10.52 79.7712 10.312C79.7712 9.928 79.4392 9.736 78.7752 9.736H77.6592V7.996L78.8952 6.736H75.8952V4.6H82.1592V6.34L80.5992 7.924ZM86.4583 4.408C87.2663 4.408 87.9703 4.564 88.5703 4.876C89.1783 5.188 89.6503 5.652 89.9863 6.268C90.3223 6.884 90.4903 7.64 90.4903 8.536C90.4903 9.496 90.2943 10.328 89.9023 11.032C89.5183 11.736 88.9743 12.272 88.2703 12.64C87.5743 13.008 86.7623 13.192 85.8343 13.192C85.3303 13.192 84.8503 13.132 84.3943 13.012C83.9383 12.9 83.5503 12.74 83.2303 12.532L84.2503 10.552C84.6663 10.848 85.1743 10.996 85.7743 10.996C86.2623 10.996 86.6623 10.876 86.9743 10.636C87.2943 10.388 87.5023 10.032 87.5983 9.568C87.1583 9.88 86.6023 10.036 85.9303 10.036C85.4183 10.036 84.9423 9.924 84.5023 9.7C84.0623 9.476 83.7103 9.16 83.4463 8.752C83.1823 8.344 83.0503 7.876 83.0503 7.348C83.0503 6.764 83.1983 6.248 83.4943 5.8C83.7983 5.352 84.2103 5.008 84.7303 4.768C85.2503 4.528 85.8263 4.408 86.4583 4.408ZM86.6503 8.08C86.9063 8.08 87.1143 8.004 87.2743 7.852C87.4343 7.692 87.5143 7.48 87.5143 7.216C87.5143 6.952 87.4343 6.744 87.2743 6.592C87.1143 6.44 86.9063 6.364 86.6503 6.364C86.3943 6.364 86.1863 6.44 86.0263 6.592C85.8663 6.744 85.7863 6.952 85.7863 7.216C85.7863 7.48 85.8663 7.692 86.0263 7.852C86.1863 8.004 86.3943 8.08 86.6503 8.08ZM91.3798 8.512H94.9798V10.552H91.3798V8.512ZM99.5429 4.6V13H96.7109V6.736H95.2709V4.6H99.5429ZM105.135 7.564C105.647 7.564 106.123 7.676 106.563 7.9C107.003 8.124 107.355 8.44 107.619 8.848C107.883 9.256 108.015 9.724 108.015 10.252C108.015 10.836 107.863 11.352 107.559 11.8C107.263 12.248 106.855 12.592 106.335 12.832C105.815 13.072 105.239 13.192 104.607 13.192C103.799 13.192 103.091 13.036 102.483 12.724C101.883 12.412 101.415 11.948 101.079 11.332C100.743 10.716 100.575 9.96 100.575 9.064C100.575 8.104 100.767 7.272 101.151 6.568C101.543 5.864 102.087 5.328 102.783 4.96C103.487 4.592 104.303 4.408 105.231 4.408C105.735 4.408 106.215 4.468 106.671 4.588C107.127 4.7 107.515 4.86 107.835 5.068L106.815 7.048C106.399 6.752 105.891 6.604 105.291 6.604C104.803 6.604 104.399 6.728 104.079 6.976C103.767 7.216 103.563 7.568 103.467 8.032C103.907 7.72 104.463 7.564 105.135 7.564ZM104.415 11.236C104.671 11.236 104.879 11.16 105.039 11.008C105.199 10.856 105.279 10.648 105.279 10.384C105.279 10.12 105.199 9.912 105.039 9.76C104.879 9.6 104.671 9.52 104.415 9.52C104.159 9.52 103.951 9.6 103.791 9.76C103.631 9.912 103.551 10.12 103.551 10.384C103.551 10.648 103.631 10.856 103.791 11.008C103.951 11.16 104.159 11.236 104.415 11.236ZM108.759 8.512H112.359V10.552H108.759V8.512ZM119.728 10.804V13H112.996V11.26L116.032 8.452C116.296 8.204 116.472 7.992 116.56 7.816C116.648 7.64 116.692 7.468 116.692 7.3C116.692 7.092 116.62 6.932 116.476 6.82C116.34 6.7 116.14 6.64 115.876 6.64C115.62 6.64 115.38 6.708 115.156 6.844C114.932 6.98 114.76 7.172 114.64 7.42L112.504 6.352C112.824 5.752 113.292 5.28 113.908 4.936C114.524 4.584 115.268 4.408 116.14 4.408C116.804 4.408 117.392 4.516 117.904 4.732C118.416 4.948 118.816 5.256 119.104 5.656C119.392 6.056 119.536 6.516 119.536 7.036C119.536 7.5 119.436 7.936 119.236 8.344C119.044 8.744 118.664 9.2 118.096 9.712L116.896 10.804H119.728ZM124.869 7.564C125.381 7.564 125.857 7.676 126.297 7.9C126.737 8.124 127.089 8.44 127.353 8.848C127.617 9.256 127.749 9.724 127.749 10.252C127.749 10.836 127.597 11.352 127.293 11.8C126.997 12.248 126.589 12.592 126.069 12.832C125.549 13.072 124.973 13.192 124.341 13.192C123.533 13.192 122.825 13.036 122.217 12.724C121.617 12.412 121.149 11.948 120.813 11.332C120.477 10.716 120.309 9.96 120.309 9.064C120.309 8.104 120.501 7.272 120.885 6.568C121.277 5.864 121.821 5.328 122.517 4.96C123.221 4.592 124.037 4.408 124.965 4.408C125.469 4.408 125.949 4.468 126.405 4.588C126.861 4.7 127.249 4.86 127.569 5.068L126.549 7.048C126.133 6.752 125.625 6.604 125.025 6.604C124.537 6.604 124.133 6.728 123.813 6.976C123.501 7.216 123.297 7.568 123.201 8.032C123.641 7.72 124.197 7.564 124.869 7.564ZM124.149 11.236C124.405 11.236 124.613 11.16 124.773 11.008C124.933 10.856 125.013 10.648 125.013 10.384C125.013 10.12 124.933 9.912 124.773 9.76C124.613 9.6 124.405 9.52 124.149 9.52C123.893 9.52 123.685 9.6 123.525 9.76C123.365 9.912 123.285 10.12 123.285 10.384C123.285 10.648 123.365 10.856 123.525 11.008C123.685 11.16 123.893 11.236 124.149 11.236Z" fill="white"/>
<rect x="0.5" y="27.5" width="135" height="25" stroke="#E16A00"/>
<path d="M13.216 39.89C13.832 40.058 14.3127 40.352 14.658 40.772C15.0033 41.1827 15.176 41.6773 15.176 42.256C15.176 42.8347 14.9893 43.3433 14.616 43.782C14.252 44.2113 13.762 44.5427 13.146 44.776C12.5393 45 11.8767 45.112 11.158 45.112C10.5047 45.112 9.856 45.014 9.212 44.818C8.568 44.622 7.98 44.328 7.448 43.936L7.938 42.9C8.36733 43.236 8.848 43.488 9.38 43.656C9.912 43.824 10.4487 43.908 10.99 43.908C11.774 43.908 12.432 43.7447 12.964 43.418C13.496 43.082 13.762 42.6247 13.762 42.046C13.762 41.5513 13.5613 41.1733 13.16 40.912C12.7587 40.6413 12.194 40.506 11.466 40.506H9.282V39.372H11.368C11.9933 39.372 12.4787 39.246 12.824 38.994C13.1787 38.7327 13.356 38.3733 13.356 37.916C13.356 37.4027 13.1273 36.9967 12.67 36.698C12.2127 36.3993 11.634 36.25 10.934 36.25C10.4767 36.25 10.01 36.3153 9.534 36.446C9.06733 36.5767 8.624 36.7727 8.204 37.034L7.756 35.886C8.25067 35.606 8.77333 35.396 9.324 35.256C9.87467 35.116 10.4253 35.046 10.976 35.046C11.6667 35.046 12.3013 35.1533 12.88 35.368C13.4587 35.5827 13.916 35.8953 14.252 36.306C14.5973 36.7167 14.77 37.1973 14.77 37.748C14.77 38.2427 14.63 38.6767 14.35 39.05C14.0793 39.4233 13.7013 39.7033 13.216 39.89ZM19.9304 37.51C20.9571 37.51 21.7411 37.762 22.2824 38.266C22.8331 38.77 23.1084 39.5213 23.1084 40.52V45H21.8344V44.02C21.6104 44.3653 21.2884 44.6313 20.8684 44.818C20.4578 44.9953 19.9678 45.084 19.3984 45.084C18.5678 45.084 17.9004 44.8833 17.3964 44.482C16.9018 44.0807 16.6544 43.5533 16.6544 42.9C16.6544 42.2467 16.8924 41.724 17.3684 41.332C17.8444 40.9307 18.6004 40.73 19.6364 40.73H21.7644V40.464C21.7644 39.8853 21.5964 39.442 21.2604 39.134C20.9244 38.826 20.4298 38.672 19.7764 38.672C19.3378 38.672 18.9084 38.7467 18.4884 38.896C18.0684 39.036 17.7138 39.2273 17.4244 39.47L16.8644 38.462C17.2471 38.154 17.7044 37.9207 18.2364 37.762C18.7684 37.594 19.3331 37.51 19.9304 37.51ZM19.6224 44.048C20.1358 44.048 20.5791 43.936 20.9524 43.712C21.3258 43.4787 21.5964 43.152 21.7644 42.732V41.696H19.6924C18.5538 41.696 17.9844 42.0787 17.9844 42.844C17.9844 43.2173 18.1291 43.5113 18.4184 43.726C18.7078 43.9407 19.1091 44.048 19.6224 44.048ZM28.4126 41.864H26.8726V45H25.5286V37.58H26.8726V40.716H28.4406L30.8486 37.58H32.2906L29.4766 41.15L32.4866 45H30.9046L28.4126 41.864ZM36.405 37.51C37.4317 37.51 38.2157 37.762 38.757 38.266C39.3077 38.77 39.583 39.5213 39.583 40.52V45H38.309V44.02C38.085 44.3653 37.763 44.6313 37.343 44.818C36.9324 44.9953 36.4424 45.084 35.873 45.084C35.0424 45.084 34.375 44.8833 33.871 44.482C33.3764 44.0807 33.129 43.5533 33.129 42.9C33.129 42.2467 33.367 41.724 33.843 41.332C34.319 40.9307 35.075 40.73 36.111 40.73H38.239V40.464C38.239 39.8853 38.071 39.442 37.735 39.134C37.399 38.826 36.9044 38.672 36.251 38.672C35.8124 38.672 35.383 38.7467 34.963 38.896C34.543 39.036 34.1884 39.2273 33.899 39.47L33.339 38.462C33.7217 38.154 34.179 37.9207 34.711 37.762C35.243 37.594 35.8077 37.51 36.405 37.51ZM36.097 44.048C36.6104 44.048 37.0537 43.936 37.427 43.712C37.8004 43.4787 38.071 43.152 38.239 42.732V41.696H36.167C35.0284 41.696 34.459 42.0787 34.459 42.844C34.459 43.2173 34.6037 43.5113 34.893 43.726C35.1824 43.9407 35.5837 44.048 36.097 44.048ZM45.8981 41.136C46.3928 41.2667 46.7755 41.4767 47.0461 41.766C47.3168 42.0553 47.4521 42.4147 47.4521 42.844C47.4521 43.2827 47.3028 43.6747 47.0041 44.02C46.7055 44.356 46.2901 44.622 45.7581 44.818C45.2355 45.0047 44.6475 45.098 43.9941 45.098C43.4435 45.098 42.9021 45.028 42.3701 44.888C41.8475 44.7387 41.3808 44.5287 40.9701 44.258L41.3761 43.236C41.7308 43.46 42.1368 43.6373 42.5941 43.768C43.0515 43.8893 43.5135 43.95 43.9801 43.95C44.6148 43.95 45.1188 43.8427 45.4921 43.628C45.8748 43.404 46.0661 43.1053 46.0661 42.732C46.0661 42.3867 45.9121 42.1207 45.6041 41.934C45.3055 41.7473 44.8808 41.654 44.3301 41.654H42.9721V40.688H44.2321C44.7361 40.688 45.1328 40.5993 45.4221 40.422C45.7115 40.2447 45.8561 40.002 45.8561 39.694C45.8561 39.358 45.6835 39.0967 45.3381 38.91C45.0021 38.7233 44.5448 38.63 43.9661 38.63C43.2288 38.63 42.4495 38.8213 41.6281 39.204L41.2641 38.168C42.1695 37.7107 43.1168 37.482 44.1061 37.482C44.7035 37.482 45.2401 37.566 45.7161 37.734C46.1921 37.902 46.5655 38.14 46.8361 38.448C47.1068 38.756 47.2421 39.106 47.2421 39.498C47.2421 39.862 47.1208 40.1887 46.8781 40.478C46.6355 40.7673 46.3088 40.9867 45.8981 41.136ZM52.1414 37.51C53.168 37.51 53.952 37.762 54.4934 38.266C55.044 38.77 55.3194 39.5213 55.3194 40.52V45H54.0454V44.02C53.8214 44.3653 53.4994 44.6313 53.0794 44.818C52.6687 44.9953 52.1787 45.084 51.6094 45.084C50.7787 45.084 50.1114 44.8833 49.6074 44.482C49.1127 44.0807 48.8654 43.5533 48.8654 42.9C48.8654 42.2467 49.1034 41.724 49.5794 41.332C50.0554 40.9307 50.8114 40.73 51.8474 40.73H53.9754V40.464C53.9754 39.8853 53.8074 39.442 53.4714 39.134C53.1354 38.826 52.6407 38.672 51.9874 38.672C51.5487 38.672 51.1194 38.7467 50.6994 38.896C50.2794 39.036 49.9247 39.2273 49.6354 39.47L49.0754 38.462C49.458 38.154 49.9154 37.9207 50.4474 37.762C50.9794 37.594 51.544 37.51 52.1414 37.51ZM51.8334 44.048C52.3467 44.048 52.79 43.936 53.1634 43.712C53.5367 43.4787 53.8074 43.152 53.9754 42.732V41.696H51.9034C50.7647 41.696 50.1954 42.0787 50.1954 42.844C50.1954 43.2173 50.34 43.5113 50.6294 43.726C50.9187 43.9407 51.32 44.048 51.8334 44.048ZM63.2695 38.756H60.5535V45H59.2095V38.756H56.4935V37.58H63.2695V38.756ZM68.0738 40.1C69.0165 40.1093 69.7351 40.324 70.2298 40.744C70.7245 41.164 70.9718 41.7567 70.9718 42.522C70.9718 43.3247 70.7011 43.9453 70.1598 44.384C69.6278 44.8133 68.8625 45.0233 67.8638 45.014L64.6438 45V37.58H65.9878V40.086L68.0738 40.1ZM67.7518 43.992C68.3585 44.0013 68.8158 43.88 69.1238 43.628C69.4411 43.376 69.5998 43.0027 69.5998 42.508C69.5998 42.0227 69.4458 41.668 69.1378 41.444C68.8391 41.22 68.3771 41.1033 67.7518 41.094L65.9878 41.066V43.978L67.7518 43.992ZM80.4743 41.136C80.969 41.2667 81.3516 41.4767 81.6223 41.766C81.893 42.0553 82.0283 42.4147 82.0283 42.844C82.0283 43.2827 81.879 43.6747 81.5803 44.02C81.2816 44.356 80.8663 44.622 80.3343 44.818C79.8116 45.0047 79.2236 45.098 78.5703 45.098C78.0196 45.098 77.4783 45.028 76.9463 44.888C76.4236 44.7387 75.957 44.5287 75.5463 44.258L75.9523 43.236C76.307 43.46 76.713 43.6373 77.1703 43.768C77.6276 43.8893 78.0896 43.95 78.5563 43.95C79.191 43.95 79.695 43.8427 80.0683 43.628C80.451 43.404 80.6423 43.1053 80.6423 42.732C80.6423 42.3867 80.4883 42.1207 80.1803 41.934C79.8816 41.7473 79.457 41.654 78.9063 41.654H77.5483V40.688H78.8083C79.3123 40.688 79.709 40.5993 79.9983 40.422C80.2876 40.2447 80.4323 40.002 80.4323 39.694C80.4323 39.358 80.2596 39.0967 79.9143 38.91C79.5783 38.7233 79.121 38.63 78.5423 38.63C77.805 38.63 77.0256 38.8213 76.2043 39.204L75.8403 38.168C76.7456 37.7107 77.693 37.482 78.6823 37.482C79.2796 37.482 79.8163 37.566 80.2923 37.734C80.7683 37.902 81.1416 38.14 81.4123 38.448C81.683 38.756 81.8183 39.106 81.8183 39.498C81.8183 39.862 81.697 40.1887 81.4543 40.478C81.2116 40.7673 80.885 40.9867 80.4743 41.136ZM89.1255 41.15C90.0869 41.3927 90.5675 41.9947 90.5675 42.956C90.5675 43.6093 90.3202 44.1133 89.8255 44.468C89.3402 44.8227 88.6122 45 87.6415 45H84.0715V37.58H87.5155C88.3929 37.58 89.0789 37.748 89.5735 38.084C90.0682 38.4107 90.3155 38.8773 90.3155 39.484C90.3155 39.876 90.2082 40.2167 89.9935 40.506C89.7882 40.786 89.4989 41.0007 89.1255 41.15ZM85.3875 40.772H87.4035C87.9169 40.772 88.3042 40.6787 88.5655 40.492C88.8362 40.3053 88.9715 40.0347 88.9715 39.68C88.9715 38.9707 88.4489 38.616 87.4035 38.616H85.3875V40.772ZM87.5435 43.964C88.1035 43.964 88.5235 43.8753 88.8035 43.698C89.0835 43.5207 89.2235 43.2453 89.2235 42.872C89.2235 42.4893 89.0929 42.2047 88.8315 42.018C88.5795 41.8313 88.1782 41.738 87.6275 41.738H85.3875V43.964H87.5435ZM95.8491 45.084C95.1118 45.084 94.4491 44.9207 93.8611 44.594C93.2731 44.2673 92.8111 43.8193 92.4751 43.25C92.1485 42.6713 91.9851 42.018 91.9851 41.29C91.9851 40.562 92.1485 39.9133 92.4751 39.344C92.8111 38.7653 93.2731 38.3173 93.8611 38C94.4491 37.6733 95.1118 37.51 95.8491 37.51C96.5865 37.51 97.2445 37.6733 97.8231 38C98.4111 38.3173 98.8685 38.7653 99.1951 39.344C99.5311 39.9133 99.6991 40.562 99.6991 41.29C99.6991 42.018 99.5311 42.6713 99.1951 43.25C98.8685 43.8193 98.4111 44.2673 97.8231 44.594C97.2445 44.9207 96.5865 45.084 95.8491 45.084ZM95.8491 43.908C96.3251 43.908 96.7498 43.8007 97.1231 43.586C97.5058 43.362 97.8045 43.054 98.0191 42.662C98.2338 42.2607 98.3411 41.8033 98.3411 41.29C98.3411 40.7767 98.2338 40.324 98.0191 39.932C97.8045 39.5307 97.5058 39.2227 97.1231 39.008C96.7498 38.7933 96.3251 38.686 95.8491 38.686C95.3731 38.686 94.9438 38.7933 94.5611 39.008C94.1878 39.2227 93.8891 39.5307 93.6651 39.932C93.4505 40.324 93.3431 40.7767 93.3431 41.29C93.3431 41.8033 93.4505 42.2607 93.6651 42.662C93.8891 43.054 94.1878 43.362 94.5611 43.586C94.9438 43.8007 95.3731 43.908 95.8491 43.908ZM101.64 37.58H102.984V40.73H107.212V37.58H108.556V45H107.212V41.892H102.984V45H101.64V37.58ZM114.347 45.084C113.61 45.084 112.947 44.9207 112.359 44.594C111.771 44.2673 111.309 43.8193 110.973 43.25C110.647 42.6713 110.483 42.018 110.483 41.29C110.483 40.562 110.647 39.9133 110.973 39.344C111.309 38.7653 111.771 38.3173 112.359 38C112.947 37.6733 113.61 37.51 114.347 37.51C115.085 37.51 115.743 37.6733 116.321 38C116.909 38.3173 117.367 38.7653 117.693 39.344C118.029 39.9133 118.197 40.562 118.197 41.29C118.197 42.018 118.029 42.6713 117.693 43.25C117.367 43.8193 116.909 44.2673 116.321 44.594C115.743 44.9207 115.085 45.084 114.347 45.084ZM114.347 43.908C114.823 43.908 115.248 43.8007 115.621 43.586C116.004 43.362 116.303 43.054 116.517 42.662C116.732 42.2607 116.839 41.8033 116.839 41.29C116.839 40.7767 116.732 40.324 116.517 39.932C116.303 39.5307 116.004 39.2227 115.621 39.008C115.248 38.7933 114.823 38.686 114.347 38.686C113.871 38.686 113.442 38.7933 113.059 39.008C112.686 39.2227 112.387 39.5307 112.163 39.932C111.949 40.324 111.841 40.7767 111.841 41.29C111.841 41.8033 111.949 42.2607 112.163 42.662C112.387 43.054 112.686 43.362 113.059 43.586C113.442 43.8007 113.871 43.908 114.347 43.908ZM123.022 41.864H121.482V45H120.138V37.58H121.482V40.716H123.05L125.458 37.58H126.9L124.086 41.15L127.096 45H125.514L123.022 41.864Z" fill="#E16A00"/>
</svg>
